<svg width="20" height="20" viewBox="0 0 20 20" fill="none" xmlns="http://www.w3.org/2000/svg">
<g id="clarity:clock-line" clip-path="url(#clip0_273_1059)">
<path id="Vector" d="M10.0002 1.11133C8.24217 1.11133 6.52359 1.63265 5.06182 2.60938C3.60005 3.5861 2.46074 4.97435 1.78796 6.59859C1.11518 8.22282 0.93915 10.0101 1.28213 11.7344C1.62511 13.4586 2.47169 15.0425 3.71483 16.2856C4.95796 17.5287 6.54181 18.3753 8.26609 18.7183C9.99036 19.0613 11.7776 18.8853 13.4019 18.2125C15.0261 17.5397 16.4143 16.4004 17.3911 14.9386C18.3678 13.4768 18.8891 11.7583 18.8891 10.0002C18.8891 7.64274 17.9526 5.38181 16.2856 3.71482C14.6186 2.04783 12.3577 1.11133 10.0002 1.11133ZM10.0002 17.778C8.46192 17.778 6.95817 17.3218 5.67912 16.4672C4.40007 15.6126 3.40317 14.3978 2.81449 12.9766C2.22581 11.5554 2.07178 9.99159 2.37189 8.48285C2.672 6.97411 3.41276 5.58824 4.5005 4.5005C5.58824 3.41276 6.97411 2.67199 8.48285 2.37189C9.99159 2.07178 11.5554 2.22581 12.9766 2.81449C14.3979 3.40317 15.6126 4.40007 16.4672 5.67912C17.3218 6.95816 17.778 8.46192 17.778 10.0002C17.778 12.063 16.9586 14.0413 15.4999 15.4999C14.0413 16.9586 12.063 17.778 10.0002 17.778Z" fill="#BF9B30"/>
<path id="Vector_2" d="M10.5115 10.2225V5.97255C10.5115 5.82521 10.453 5.6839 10.3488 5.57971C10.2446 5.47552 10.1033 5.41699 9.95595 5.41699C9.8086 5.41699 9.6673 5.47552 9.56311 5.57971C9.45892 5.6839 9.40039 5.82521 9.40039 5.97255V10.817L12.6782 13.0392C12.7385 13.0846 12.8076 13.1172 12.881 13.1351C12.9544 13.1529 13.0307 13.1556 13.1052 13.1429C13.1796 13.1303 13.2508 13.1026 13.3142 13.0615C13.3776 13.0204 13.4319 12.9668 13.4739 12.904C13.5159 12.8412 13.5447 12.7705 13.5584 12.6962C13.5721 12.6219 13.5706 12.5456 13.5538 12.472C13.5371 12.3983 13.5054 12.3288 13.4609 12.2678C13.4164 12.2067 13.3599 12.1554 13.2948 12.117L10.5115 10.2225Z" fill="#BF9B30"/>
<path id="Vector_3" d="M4.44429 9.96695C4.43921 8.96753 4.70545 7.98546 5.21464 7.12546C5.72382 6.26545 6.45686 5.55976 7.33559 5.08362C8.21431 4.60748 9.20578 4.37873 10.2043 4.42178C11.2028 4.46483 12.1709 4.77805 13.0054 5.32806L13.4776 4.5725C12.685 4.05328 11.7872 3.71606 10.8487 3.58506C9.91023 3.45405 8.9544 3.53253 8.04986 3.81484C7.14533 4.09715 6.31454 4.57629 5.61719 5.21783C4.91984 5.85938 4.37324 6.64742 4.01664 7.52532C3.66004 8.40323 3.50231 9.34922 3.55476 10.2953C3.60722 11.2414 3.86857 12.1642 4.32003 12.9973C4.7715 13.8304 5.40187 14.5532 6.16587 15.1137C6.92987 15.6742 7.80853 16.0586 8.73873 16.2392L8.88873 15.3892C7.63761 15.1338 6.51265 14.4552 5.70318 13.4677C4.89371 12.4801 4.44914 11.2439 4.44429 9.96695Z" fill="#BF9B30"/>
</g>
<defs>
<clipPath id="clip0_273_1059">
<rect width="20" height="20" fill="white"/>
</clipPath>
</defs>
</svg>
